<svg xmlns="http://www.w3.org/2000/svg" width="1024" height="1024" viewBox="0 0 1024 1024">
<path fill="#005289" fill-rule="evenodd" d="M 551.0 356.0 L 548.0 358.0 L 548.0 362.0 L 545.0 361.0 L 545.0 365.0 L 539.0 366.0 L 541.0 367.0 L 539.0 369.0 L 543.0 368.0 L 545.0 370.0 L 544.0 374.0 L 553.0 373.0 L 550.0 361.0 Z M 503.0 349.0 L 498.0 348.0 L 501.0 351.0 L 494.0 353.0 L 490.0 358.0 L 487.0 357.0 L 488.0 353.0 L 484.0 352.0 L 484.0 349.0 L 479.0 352.0 L 473.0 352.0 L 472.0 356.0 L 474.0 358.0 L 471.0 367.0 L 475.0 368.0 L 476.0 371.0 L 472.0 373.0 L 471.0 370.0 L 470.0 376.0 L 473.0 373.0 L 481.0 373.0 L 485.0 376.0 L 491.0 373.0 L 491.0 370.0 L 494.0 371.0 L 494.0 374.0 L 502.0 374.0 L 494.0 371.0 L 496.0 367.0 L 500.0 368.0 L 499.0 366.0 L 494.0 365.0 L 492.0 367.0 L 490.0 365.0 L 493.0 358.0 L 503.0 355.0 Z M 520.0 305.0 L 520.0 313.0 L 518.0 314.0 L 520.0 317.0 L 518.0 319.0 L 521.0 322.0 L 526.0 319.0 L 535.0 322.0 L 526.0 327.0 L 557.0 327.0 L 553.0 313.0 L 554.0 311.0 L 557.0 312.0 L 557.0 306.0 Z M 468.0 306.0 L 467.0 309.0 L 471.0 313.0 L 470.0 320.0 L 474.0 322.0 L 474.0 327.0 L 503.0 327.0 L 503.0 315.0 L 500.0 313.0 L 503.0 311.0 L 503.0 306.0 L 499.0 305.0 L 496.0 306.0 L 497.0 308.0 L 490.0 306.0 L 491.0 308.0 L 487.0 308.0 L 488.0 306.0 L 480.0 305.0 L 476.0 306.0 L 473.0 310.0 L 469.0 309.0 Z M 180.0 391.0 L 182.0 401.0 L 189.0 405.0 L 214.0 405.0 L 236.0 391.0 L 242.0 392.0 L 242.0 399.0 L 249.0 397.0 L 249.0 392.0 L 252.0 392.0 L 256.0 397.0 L 252.0 398.0 L 263.0 405.0 L 260.0 400.0 L 262.0 398.0 L 265.0 400.0 L 270.0 399.0 L 269.0 394.0 L 273.0 391.0 L 274.0 383.0 L 273.0 370.0 L 278.0 365.0 L 311.0 344.0 L 320.0 341.0 L 323.0 337.0 L 370.0 307.0 L 375.0 307.0 L 382.0 300.0 L 403.0 289.0 L 414.0 280.0 L 419.0 279.0 L 423.0 274.0 L 431.0 272.0 L 438.0 265.0 L 443.0 264.0 L 446.0 260.0 L 512.0 219.0 L 537.0 234.0 L 547.0 243.0 L 552.0 244.0 L 555.0 248.0 L 576.0 259.0 L 579.0 263.0 L 583.0 263.0 L 604.0 279.0 L 614.0 283.0 L 680.0 324.0 L 706.0 343.0 L 711.0 344.0 L 745.0 365.0 L 750.0 372.0 L 750.0 379.0 L 747.0 381.0 L 749.0 385.0 L 749.0 401.0 L 749.0 398.0 L 751.0 398.0 L 753.0 415.0 L 757.0 417.0 L 752.0 419.0 L 754.0 424.0 L 759.0 418.0 L 760.0 427.0 L 764.0 424.0 L 764.0 427.0 L 766.0 426.0 L 769.0 430.0 L 775.0 430.0 L 774.0 425.0 L 778.0 422.0 L 781.0 423.0 L 781.0 395.0 L 784.0 392.0 L 807.0 405.0 L 835.0 405.0 L 842.0 398.0 L 840.0 386.0 L 822.0 373.0 L 603.0 233.0 L 590.0 222.0 L 578.0 217.0 L 523.0 181.0 L 514.0 178.0 L 495.0 184.0 L 362.0 270.0 L 358.0 268.0 L 358.0 260.0 L 360.0 255.0 L 365.0 254.0 L 369.0 250.0 L 368.0 221.0 L 360.0 218.0 L 297.0 218.0 L 290.0 220.0 L 285.0 227.0 L 285.0 249.0 L 290.0 256.0 L 297.0 260.0 L 296.0 312.0 L 186.0 383.0 Z"/>
<path fill="#2889cb" fill-rule="evenodd" d="M 556.0 341.0 L 545.0 342.0 L 540.0 340.0 L 544.0 339.0 L 538.0 338.0 L 531.0 341.0 L 528.0 339.0 L 526.0 342.0 L 520.0 343.0 L 548.0 344.0 L 549.0 342.0 L 550.0 344.0 L 555.0 344.0 Z M 276.0 386.0 L 277.0 456.0 L 309.0 432.0 L 325.0 424.0 L 351.0 416.0 L 364.0 416.0 L 379.0 405.0 L 400.0 395.0 L 413.0 391.0 L 445.0 387.0 L 487.0 393.0 L 509.0 404.0 L 519.0 402.0 L 542.0 390.0 L 549.0 391.0 L 551.0 389.0 L 572.0 387.0 L 602.0 389.0 L 623.0 395.0 L 648.0 408.0 L 657.0 416.0 L 678.0 417.0 L 712.0 431.0 L 747.0 456.0 L 747.0 386.0 L 743.0 382.0 L 512.0 239.0 L 506.0 240.0 L 296.0 371.0 Z M 669.0 340.0 L 668.0 343.0 L 665.0 341.0 L 660.0 343.0 L 655.0 338.0 L 657.0 336.0 L 652.0 340.0 L 651.0 338.0 L 646.0 340.0 L 643.0 337.0 L 636.0 343.0 L 634.0 338.0 L 631.0 342.0 L 626.0 340.0 L 623.0 345.0 L 620.0 341.0 L 610.0 346.0 L 607.0 343.0 L 605.0 345.0 L 602.0 343.0 L 590.0 344.0 L 590.0 340.0 L 579.0 345.0 L 578.0 342.0 L 575.0 345.0 L 572.0 345.0 L 570.0 342.0 L 565.0 345.0 L 561.0 342.0 L 561.0 374.0 L 557.0 379.0 L 518.0 379.0 L 514.0 375.0 L 514.0 347.0 L 512.0 345.0 L 516.0 342.0 L 507.0 347.0 L 507.0 377.0 L 505.0 379.0 L 466.0 379.0 L 463.0 376.0 L 463.0 346.0 L 457.0 341.0 L 457.0 344.0 L 447.0 345.0 L 435.0 343.0 L 406.0 345.0 L 403.0 341.0 L 397.0 344.0 L 394.0 342.0 L 388.0 346.0 L 385.0 345.0 L 386.0 342.0 L 382.0 342.0 L 380.0 346.0 L 377.0 340.0 L 376.0 342.0 L 371.0 336.0 L 369.0 340.0 L 366.0 339.0 L 367.0 337.0 L 365.0 339.0 L 360.0 336.0 L 360.0 340.0 L 354.0 344.0 L 345.0 344.0 L 509.0 240.0 L 517.0 243.0 L 666.0 336.0 Z"/>
<path fill="#b43006" fill-rule="evenodd" d="M 534.0 675.0 L 529.0 691.0 L 526.0 690.0 L 510.0 699.0 L 492.0 703.0 L 452.0 702.0 L 421.0 690.0 L 421.0 696.0 L 425.0 701.0 L 446.0 710.0 L 468.0 713.0 L 495.0 711.0 L 497.0 713.0 L 495.0 738.0 L 483.0 746.0 L 455.0 752.0 L 426.0 752.0 L 403.0 747.0 L 387.0 738.0 L 384.0 747.0 L 388.0 752.0 L 399.0 758.0 L 414.0 762.0 L 418.0 761.0 L 421.0 764.0 L 427.0 762.0 L 431.0 765.0 L 450.0 765.0 L 453.0 762.0 L 458.0 764.0 L 461.0 761.0 L 466.0 762.0 L 485.0 757.0 L 499.0 746.0 L 503.0 747.0 L 506.0 744.0 L 517.0 743.0 L 533.0 733.0 L 537.0 719.0 L 535.0 718.0 L 527.0 726.0 L 515.0 732.0 L 504.0 735.0 L 502.0 733.0 L 501.0 713.0 L 522.0 704.0 L 528.0 698.0 L 528.0 694.0 L 532.0 689.0 Z M 262.0 560.0 L 233.0 559.0 L 227.0 562.0 L 211.0 578.0 L 202.0 598.0 L 202.0 603.0 L 199.0 606.0 L 201.0 612.0 L 198.0 624.0 L 201.0 627.0 L 202.0 642.0 L 212.0 665.0 L 222.0 678.0 L 224.0 678.0 L 223.0 658.0 L 226.0 654.0 L 224.0 649.0 L 227.0 646.0 L 227.0 636.0 L 232.0 619.0 L 240.0 602.0 L 263.0 573.0 Z M 547.0 487.0 L 549.0 493.0 L 559.0 487.0 L 576.0 483.0 L 577.0 480.0 L 590.0 479.0 L 592.0 481.0 L 590.0 484.0 L 583.0 484.0 L 599.0 489.0 L 607.0 496.0 L 612.0 505.0 L 614.0 524.0 L 610.0 533.0 L 620.0 534.0 L 625.0 531.0 L 627.0 521.0 L 625.0 504.0 L 616.0 488.0 L 606.0 480.0 L 591.0 474.0 L 574.0 473.0 L 557.0 479.0 Z M 513.0 428.0 L 496.0 454.0 L 496.0 573.0 L 485.0 581.0 L 469.0 588.0 L 489.0 625.0 L 503.0 623.0 L 518.0 628.0 L 523.0 627.0 L 525.0 572.0 L 533.0 554.0 L 550.0 540.0 L 547.0 539.0 L 535.0 543.0 L 516.0 562.0 L 514.0 561.0 L 513.0 452.0 L 528.0 434.0 L 545.0 421.0 L 563.0 414.0 L 584.0 413.0 L 607.0 419.0 L 631.0 434.0 L 643.0 449.0 L 648.0 465.0 L 659.0 468.0 L 670.0 478.0 L 675.0 489.0 L 675.0 504.0 L 671.0 514.0 L 659.0 528.0 L 687.0 521.0 L 691.0 523.0 L 693.0 521.0 L 695.0 523.0 L 700.0 521.0 L 715.0 528.0 L 729.0 547.0 L 739.0 551.0 L 734.0 532.0 L 721.0 517.0 L 708.0 510.0 L 691.0 508.0 L 689.0 506.0 L 687.0 485.0 L 681.0 474.0 L 663.0 459.0 L 659.0 447.0 L 661.0 445.0 L 683.0 449.0 L 705.0 461.0 L 719.0 477.0 L 725.0 490.0 L 726.0 501.0 L 743.0 505.0 L 757.0 513.0 L 764.0 520.0 L 774.0 535.0 L 779.0 552.0 L 778.0 566.0 L 773.0 577.0 L 787.0 582.0 L 800.0 594.0 L 806.0 609.0 L 806.0 619.0 L 801.0 634.0 L 798.0 635.0 L 790.0 617.0 L 779.0 605.0 L 765.0 597.0 L 755.0 595.0 L 753.0 611.0 L 764.0 612.0 L 778.0 623.0 L 785.0 637.0 L 785.0 653.0 L 782.0 660.0 L 773.0 670.0 L 754.0 680.0 L 753.0 698.0 L 755.0 703.0 L 774.0 698.0 L 789.0 689.0 L 803.0 676.0 L 814.0 660.0 L 822.0 639.0 L 824.0 614.0 L 819.0 593.0 L 804.0 572.0 L 799.0 569.0 L 799.0 560.0 L 801.0 558.0 L 798.0 554.0 L 797.0 542.0 L 786.0 519.0 L 768.0 501.0 L 754.0 493.0 L 746.0 492.0 L 734.0 471.0 L 721.0 457.0 L 708.0 447.0 L 690.0 438.0 L 668.0 432.0 L 654.0 431.0 L 650.0 433.0 L 639.0 422.0 L 615.0 409.0 L 589.0 402.0 L 567.0 402.0 L 565.0 404.0 L 549.0 406.0 L 534.0 412.0 Z"/>
<path fill="#fc9d18" fill-rule="evenodd" d="M 423.0 729.0 L 423.0 749.0 L 436.0 751.0 L 455.0 749.0 L 454.0 729.0 Z M 466.0 727.0 L 460.0 729.0 L 459.0 749.0 L 470.0 747.0 L 469.0 729.0 Z M 383.0 713.0 L 384.0 733.0 L 393.0 741.0 L 411.0 747.0 L 412.0 728.0 L 394.0 722.0 Z M 422.0 701.0 L 414.0 699.0 L 401.0 704.0 L 400.0 709.0 L 406.0 713.0 L 405.0 711.0 L 411.0 704.0 Z M 457.0 682.0 L 459.0 700.0 L 468.0 702.0 L 488.0 701.0 L 487.0 682.0 Z M 502.0 680.0 L 493.0 682.0 L 492.0 701.0 L 502.0 699.0 Z M 421.0 666.0 L 421.0 685.0 L 429.0 692.0 L 447.0 698.0 L 447.0 679.0 L 428.0 673.0 Z M 443.0 654.0 L 438.0 655.0 L 436.0 659.0 L 442.0 665.0 L 441.0 661.0 L 446.0 656.0 Z M 456.0 642.0 L 465.0 647.0 L 496.0 649.0 L 501.0 653.0 L 498.0 654.0 L 500.0 657.0 L 506.0 652.0 L 512.0 659.0 L 519.0 659.0 L 521.0 661.0 L 515.0 666.0 L 509.0 678.0 L 525.0 670.0 L 533.0 658.0 L 533.0 653.0 L 527.0 647.0 L 508.0 639.0 L 477.0 636.0 Z M 756.0 613.0 L 756.0 636.0 L 759.0 633.0 L 777.0 630.0 L 776.0 625.0 L 768.0 617.0 L 758.0 612.0 Z M 664.0 448.0 L 665.0 457.0 L 685.0 475.0 L 690.0 486.0 L 693.0 505.0 L 715.0 510.0 L 724.0 516.0 L 736.0 530.0 L 741.0 544.0 L 742.0 557.0 L 750.0 571.0 L 754.0 591.0 L 764.0 594.0 L 783.0 605.0 L 792.0 615.0 L 798.0 629.0 L 800.0 629.0 L 803.0 622.0 L 803.0 607.0 L 798.0 595.0 L 788.0 585.0 L 771.0 578.0 L 776.0 564.0 L 776.0 549.0 L 771.0 534.0 L 764.0 523.0 L 755.0 514.0 L 746.0 509.0 L 725.0 504.0 L 718.0 480.0 L 701.0 461.0 L 684.0 452.0 Z M 516.0 451.0 L 516.0 557.0 L 530.0 543.0 L 544.0 537.0 L 701.0 538.0 L 696.0 529.0 L 687.0 525.0 L 679.0 525.0 L 663.0 531.0 L 655.0 528.0 L 671.0 509.0 L 673.0 501.0 L 672.0 487.0 L 664.0 474.0 L 647.0 467.0 L 639.0 456.0 L 626.0 444.0 L 616.0 439.0 L 598.0 437.0 L 582.0 442.0 L 567.0 454.0 L 564.0 453.0 L 565.0 445.0 L 576.0 434.0 L 596.0 427.0 L 615.0 428.0 L 613.0 424.0 L 587.0 416.0 L 561.0 417.0 L 546.0 423.0 L 533.0 432.0 Z M 544.0 487.0 L 555.0 477.0 L 569.0 471.0 L 589.0 471.0 L 611.0 480.0 L 620.0 489.0 L 628.0 505.0 L 630.0 521.0 L 626.0 534.0 L 624.0 536.0 L 611.0 536.0 L 608.0 531.0 L 612.0 524.0 L 605.0 520.0 L 597.0 507.0 L 583.0 495.0 L 562.0 493.0 L 551.0 498.0 Z"/>
<path fill="#f16113" fill-rule="evenodd" d="M 459.0 728.0 L 455.0 731.0 L 457.0 737.0 L 456.0 749.0 L 458.0 749.0 Z M 494.0 717.0 L 490.0 721.0 L 474.0 726.0 L 473.0 734.0 L 474.0 728.0 L 477.0 729.0 L 476.0 735.0 L 473.0 736.0 L 476.0 739.0 L 476.0 744.0 L 483.0 744.0 L 492.0 739.0 L 494.0 736.0 Z M 532.0 698.0 L 521.0 707.0 L 505.0 715.0 L 504.0 731.0 L 516.0 729.0 L 528.0 723.0 L 535.0 716.0 L 536.0 704.0 Z M 489.0 681.0 L 488.0 699.0 L 491.0 700.0 L 492.0 682.0 Z M 522.0 674.0 L 517.0 677.0 L 519.0 686.0 L 514.0 694.0 L 512.0 693.0 L 512.0 679.0 L 507.0 679.0 L 504.0 682.0 L 504.0 695.0 L 506.0 698.0 L 524.0 690.0 L 522.0 687.0 Z M 780.0 631.0 L 761.0 637.0 L 754.0 636.0 L 754.0 671.0 L 756.0 676.0 L 772.0 668.0 L 783.0 654.0 L 784.0 640.0 Z M 509.0 431.0 L 492.0 414.0 L 473.0 405.0 L 450.0 401.0 L 414.0 405.0 L 390.0 416.0 L 374.0 434.0 L 371.0 443.0 L 371.0 460.0 L 375.0 475.0 L 367.0 469.0 L 362.0 459.0 L 362.0 433.0 L 344.0 435.0 L 329.0 440.0 L 308.0 452.0 L 293.0 467.0 L 278.0 490.0 L 259.0 498.0 L 244.0 512.0 L 233.0 531.0 L 229.0 550.0 L 234.0 552.0 L 248.0 544.0 L 271.0 543.0 L 290.0 551.0 L 293.0 550.0 L 297.0 544.0 L 291.0 538.0 L 284.0 525.0 L 283.0 509.0 L 285.0 505.0 L 298.0 493.0 L 317.0 483.0 L 332.0 479.0 L 358.0 478.0 L 375.0 482.0 L 386.0 488.0 L 413.0 486.0 L 432.0 493.0 L 436.0 497.0 L 436.0 506.0 L 431.0 528.0 L 421.0 548.0 L 449.0 568.0 L 465.0 586.0 L 474.0 585.0 L 494.0 573.0 L 494.0 516.0 L 476.0 508.0 L 457.0 510.0 L 449.0 515.0 L 447.0 512.0 L 457.0 502.0 L 467.0 498.0 L 479.0 498.0 L 494.0 503.0 L 495.0 453.0 Z M 463.0 435.0 L 460.0 439.0 L 448.0 441.0 L 433.0 448.0 L 415.0 466.0 L 411.0 465.0 L 410.0 462.0 L 414.0 452.0 L 426.0 440.0 L 447.0 432.0 L 460.0 432.0 Z"/>
<path fill="#014671" fill-rule="evenodd" d="M 705.0 670.0 L 697.0 665.0 L 631.0 668.0 L 629.0 673.0 L 633.0 677.0 L 699.0 678.0 L 705.0 673.0 Z M 628.0 616.0 L 632.0 622.0 L 665.0 624.0 L 701.0 623.0 L 706.0 617.0 L 703.0 612.0 L 694.0 608.0 L 641.0 609.0 L 631.0 612.0 Z M 547.0 563.0 L 543.0 573.0 L 543.0 646.0 L 549.0 661.0 L 549.0 701.0 L 552.0 739.0 L 712.0 739.0 L 722.0 736.0 L 732.0 728.0 L 737.0 717.0 L 738.0 579.0 L 734.0 574.0 L 733.0 566.0 L 727.0 559.0 L 717.0 554.0 L 560.0 554.0 Z M 557.0 574.0 L 564.0 567.0 L 710.0 566.0 L 715.0 568.0 L 720.0 576.0 L 719.0 699.0 L 721.0 713.0 L 718.0 718.0 L 713.0 721.0 L 635.0 720.0 L 630.0 722.0 L 629.0 720.0 L 624.0 720.0 L 621.0 722.0 L 622.0 720.0 L 609.0 720.0 L 602.0 723.0 L 588.0 720.0 L 591.0 720.0 L 591.0 722.0 L 560.0 723.0 L 557.0 720.0 L 556.0 684.0 Z M 517.0 347.0 L 519.0 376.0 L 557.0 375.0 L 557.0 352.0 L 551.0 350.0 L 552.0 347.0 L 556.0 348.0 L 556.0 346.0 Z M 550.0 356.0 L 554.0 373.0 L 552.0 375.0 L 544.0 375.0 L 542.0 373.0 L 544.0 370.0 L 539.0 370.0 L 538.0 368.0 L 540.0 367.0 L 538.0 366.0 L 545.0 364.0 L 544.0 361.0 L 548.0 361.0 L 547.0 358.0 Z M 465.0 347.0 L 466.0 376.0 L 469.0 376.0 L 471.0 369.0 L 472.0 372.0 L 475.0 371.0 L 475.0 369.0 L 470.0 367.0 L 473.0 358.0 L 471.0 353.0 L 473.0 351.0 L 479.0 351.0 L 484.0 348.0 L 484.0 351.0 L 487.0 351.0 L 489.0 353.0 L 488.0 357.0 L 490.0 357.0 L 494.0 352.0 L 500.0 351.0 L 497.0 349.0 L 498.0 347.0 L 504.0 349.0 L 504.0 355.0 L 493.0 359.0 L 493.0 364.0 L 491.0 365.0 L 499.0 365.0 L 501.0 368.0 L 496.0 368.0 L 495.0 371.0 L 500.0 371.0 L 503.0 374.0 L 494.0 375.0 L 493.0 371.0 L 491.0 371.0 L 492.0 373.0 L 486.0 376.0 L 505.0 375.0 L 504.0 346.0 Z M 267.0 329.0 L 188.0 379.0 L 178.0 388.0 L 178.0 400.0 L 190.0 409.0 L 192.0 407.0 L 214.0 408.0 L 231.0 397.0 L 239.0 395.0 L 238.0 428.0 L 240.0 430.0 L 240.0 439.0 L 238.0 442.0 L 240.0 443.0 L 240.0 480.0 L 238.0 483.0 L 240.0 488.0 L 263.0 477.0 L 274.0 462.0 L 275.0 378.0 L 277.0 372.0 L 274.0 370.0 L 275.0 383.0 L 274.0 391.0 L 270.0 394.0 L 271.0 399.0 L 265.0 401.0 L 262.0 399.0 L 263.0 406.0 L 251.0 398.0 L 255.0 397.0 L 250.0 392.0 L 251.0 396.0 L 245.0 400.0 L 241.0 399.0 L 241.0 392.0 L 236.0 392.0 L 214.0 406.0 L 189.0 406.0 L 181.0 401.0 L 179.0 391.0 L 186.0 382.0 Z M 744.0 322.0 L 838.0 383.0 L 843.0 390.0 L 843.0 398.0 L 835.0 406.0 L 807.0 406.0 L 784.0 393.0 L 782.0 395.0 L 782.0 423.0 L 775.0 425.0 L 776.0 430.0 L 774.0 432.0 L 769.0 431.0 L 766.0 427.0 L 764.0 428.0 L 764.0 425.0 L 760.0 428.0 L 759.0 419.0 L 754.0 425.0 L 751.0 419.0 L 756.0 417.0 L 752.0 415.0 L 750.0 398.0 L 748.0 403.0 L 748.0 462.0 L 760.0 477.0 L 783.0 489.0 L 783.0 396.0 L 786.0 395.0 L 809.0 409.0 L 815.0 407.0 L 831.0 407.0 L 833.0 409.0 L 843.0 402.0 L 845.0 390.0 L 839.0 382.0 Z M 518.0 320.0 L 519.0 334.0 L 557.0 333.0 L 557.0 328.0 L 526.0 328.0 L 525.0 325.0 L 534.0 322.0 L 526.0 320.0 L 521.0 323.0 Z M 518.0 313.0 L 520.0 304.0 L 556.0 305.0 L 556.0 303.0 L 519.0 303.0 Z M 465.0 304.0 L 466.0 334.0 L 505.0 333.0 L 504.0 303.0 Z M 467.0 306.0 L 473.0 309.0 L 476.0 305.0 L 480.0 304.0 L 488.0 305.0 L 487.0 307.0 L 491.0 307.0 L 490.0 305.0 L 493.0 307.0 L 497.0 307.0 L 495.0 306.0 L 499.0 304.0 L 503.0 305.0 L 504.0 311.0 L 501.0 313.0 L 504.0 315.0 L 504.0 327.0 L 502.0 329.0 L 501.0 327.0 L 474.0 328.0 L 472.0 326.0 L 473.0 322.0 L 469.0 320.0 L 470.0 313.0 L 466.0 309.0 Z M 284.0 250.0 L 287.0 256.0 L 294.0 261.0 L 293.0 300.0 L 294.0 307.0 L 296.0 308.0 L 296.0 260.0 L 290.0 257.0 Z M 363.0 218.0 L 359.0 215.0 L 295.0 216.0 L 288.0 219.0 L 284.0 226.0 L 290.0 219.0 L 297.0 217.0 Z M 515.0 177.0 L 523.0 180.0 L 587.0 221.0 L 527.0 181.0 Z M 510.0 178.0 L 506.0 177.0 L 496.0 181.0 L 455.0 209.0 L 495.0 183.0 Z"/>
<path fill="#21493b" fill-rule="evenodd" d="M 626.0 673.0 L 632.0 679.0 L 654.0 679.0 L 633.0 678.0 L 628.0 673.0 L 631.0 667.0 L 679.0 665.0 L 632.0 665.0 Z M 626.0 652.0 L 620.0 646.0 L 614.0 648.0 L 594.0 674.0 L 585.0 666.0 L 579.0 665.0 L 575.0 666.0 L 572.0 672.0 L 590.0 689.0 L 598.0 691.0 L 624.0 659.0 Z M 319.0 642.0 L 327.0 651.0 L 335.0 655.0 L 335.0 663.0 L 329.0 669.0 L 321.0 664.0 L 319.0 666.0 L 321.0 665.0 L 336.0 675.0 L 351.0 679.0 L 366.0 679.0 L 374.0 674.0 L 376.0 669.0 L 370.0 662.0 L 335.0 653.0 L 326.0 649.0 Z M 626.0 615.0 L 628.0 622.0 L 632.0 624.0 L 655.0 624.0 L 630.0 622.0 L 627.0 617.0 L 628.0 614.0 L 638.0 609.0 L 630.0 610.0 Z M 625.0 595.0 L 621.0 591.0 L 615.0 592.0 L 593.0 619.0 L 581.0 608.0 L 574.0 611.0 L 573.0 617.0 L 589.0 633.0 L 597.0 636.0 L 624.0 603.0 Z M 736.0 570.0 L 733.0 563.0 L 726.0 556.0 L 711.0 551.0 L 560.0 552.0 L 552.0 556.0 L 543.0 567.0 L 541.0 592.0 L 544.0 566.0 L 551.0 558.0 L 560.0 553.0 L 717.0 553.0 L 723.0 555.0 L 733.0 564.0 L 735.0 574.0 Z M 416.0 502.0 L 401.0 502.0 L 386.0 508.0 L 385.0 510.0 L 391.0 508.0 L 393.0 513.0 L 372.0 536.0 L 359.0 542.0 L 345.0 541.0 L 334.0 534.0 L 326.0 525.0 L 320.0 508.0 L 311.0 505.0 L 301.0 505.0 L 297.0 508.0 L 304.0 529.0 L 316.0 545.0 L 309.0 548.0 L 305.0 553.0 L 304.0 564.0 L 283.0 578.0 L 262.0 601.0 L 247.0 630.0 L 241.0 655.0 L 240.0 683.0 L 243.0 701.0 L 252.0 719.0 L 266.0 731.0 L 284.0 738.0 L 300.0 741.0 L 381.0 741.0 L 382.0 704.0 L 394.0 693.0 L 419.0 685.0 L 418.0 665.0 L 420.0 654.0 L 428.0 646.0 L 441.0 641.0 L 471.0 636.0 L 462.0 612.0 L 447.0 590.0 L 427.0 572.0 L 414.0 563.0 L 415.0 557.0 L 413.0 552.0 L 409.0 548.0 L 402.0 546.0 L 416.0 518.0 L 418.0 510.0 Z M 436.0 602.0 L 449.0 625.0 L 422.0 636.0 L 413.0 644.0 L 408.0 655.0 L 406.0 671.0 L 400.0 669.0 L 399.0 658.0 L 391.0 647.0 L 374.0 637.0 L 369.0 638.0 L 367.0 632.0 L 359.0 630.0 L 358.0 625.0 L 364.0 622.0 L 365.0 619.0 L 384.0 627.0 L 382.0 623.0 L 360.0 615.0 L 351.0 615.0 L 338.0 623.0 L 338.0 628.0 L 343.0 633.0 L 358.0 638.0 L 370.0 639.0 L 385.0 645.0 L 393.0 651.0 L 397.0 659.0 L 397.0 671.0 L 394.0 677.0 L 387.0 683.0 L 367.0 692.0 L 362.0 706.0 L 350.0 706.0 L 345.0 694.0 L 334.0 693.0 L 315.0 685.0 L 314.0 682.0 L 319.0 670.0 L 318.0 668.0 L 312.0 683.0 L 318.0 692.0 L 314.0 699.0 L 314.0 706.0 L 308.0 710.0 L 309.0 715.0 L 305.0 719.0 L 286.0 707.0 L 273.0 694.0 L 263.0 677.0 L 259.0 661.0 L 259.0 645.0 L 264.0 626.0 L 277.0 605.0 L 291.0 591.0 L 311.0 578.0 L 343.0 569.0 L 380.0 570.0 L 393.0 573.0 L 411.0 581.0 Z M 323.0 554.0 L 327.0 549.0 L 389.0 549.0 L 392.0 557.0 L 390.0 559.0 L 326.0 559.0 Z"/>
<path fill="#2795d1" fill-rule="evenodd" d="M 668.0 340.0 L 593.0 291.0 L 517.0 244.0 L 509.0 241.0 L 346.0 344.0 L 359.0 340.0 L 358.0 337.0 L 360.0 335.0 L 365.0 338.0 L 367.0 336.0 L 367.0 339.0 L 371.0 335.0 L 373.0 339.0 L 378.0 340.0 L 380.0 345.0 L 382.0 341.0 L 386.0 341.0 L 386.0 345.0 L 394.0 341.0 L 397.0 343.0 L 403.0 340.0 L 406.0 344.0 L 413.0 344.0 L 415.0 342.0 L 447.0 344.0 L 457.0 343.0 L 455.0 342.0 L 457.0 340.0 L 464.0 346.0 L 507.0 346.0 L 512.0 343.0 L 515.0 347.0 L 516.0 375.0 L 516.0 346.0 L 520.0 344.0 L 520.0 341.0 L 526.0 341.0 L 528.0 338.0 L 531.0 340.0 L 532.0 338.0 L 539.0 337.0 L 544.0 338.0 L 544.0 340.0 L 541.0 340.0 L 557.0 341.0 L 556.0 344.0 L 559.0 346.0 L 559.0 374.0 L 561.0 341.0 L 565.0 344.0 L 570.0 341.0 L 572.0 344.0 L 575.0 344.0 L 578.0 341.0 L 579.0 344.0 L 590.0 339.0 L 590.0 343.0 L 602.0 342.0 L 605.0 344.0 L 607.0 342.0 L 610.0 345.0 L 620.0 340.0 L 623.0 344.0 L 626.0 339.0 L 631.0 341.0 L 634.0 337.0 L 637.0 339.0 L 636.0 342.0 L 643.0 336.0 L 646.0 339.0 L 655.0 337.0 L 660.0 342.0 L 665.0 340.0 L 668.0 342.0 Z M 463.0 340.0 L 469.0 337.0 L 473.0 341.0 L 487.0 341.0 L 488.0 343.0 L 464.0 344.0 Z M 516.0 303.0 L 518.0 301.0 L 556.0 301.0 L 559.0 304.0 L 559.0 334.0 L 557.0 336.0 L 518.0 336.0 L 516.0 334.0 Z M 463.0 304.0 L 466.0 301.0 L 503.0 301.0 L 507.0 305.0 L 507.0 334.0 L 505.0 336.0 L 465.0 336.0 L 463.0 334.0 Z"/>
<path fill="#80771f" fill-rule="evenodd" d="M 442.0 612.0 L 434.0 601.0 L 420.0 588.0 L 409.0 581.0 L 389.0 573.0 L 372.0 570.0 L 344.0 570.0 L 319.0 576.0 L 291.0 592.0 L 278.0 605.0 L 268.0 620.0 L 260.0 645.0 L 260.0 661.0 L 265.0 679.0 L 275.0 695.0 L 286.0 705.0 L 284.0 702.0 L 285.0 691.0 L 291.0 692.0 L 291.0 687.0 L 288.0 685.0 L 294.0 683.0 L 301.0 669.0 L 302.0 661.0 L 311.0 654.0 L 311.0 648.0 L 309.0 647.0 L 312.0 646.0 L 311.0 617.0 L 317.0 615.0 L 321.0 607.0 L 327.0 606.0 L 334.0 600.0 L 341.0 599.0 L 343.0 597.0 L 342.0 593.0 L 350.0 583.0 L 366.0 583.0 L 368.0 591.0 L 370.0 593.0 L 374.0 591.0 L 376.0 598.0 L 386.0 599.0 L 392.0 604.0 L 392.0 609.0 L 398.0 612.0 L 396.0 622.0 L 399.0 626.0 L 396.0 629.0 L 404.0 629.0 L 402.0 633.0 L 403.0 637.0 L 407.0 639.0 L 404.0 641.0 L 405.0 643.0 L 406.0 640.0 L 412.0 639.0 L 412.0 644.0 L 423.0 634.0 L 447.0 626.0 Z M 329.0 499.0 L 332.0 500.0 L 323.0 510.0 L 325.0 521.0 L 334.0 533.0 L 345.0 540.0 L 358.0 541.0 L 365.0 539.0 L 373.0 534.0 L 384.0 522.0 L 382.0 521.0 L 382.0 508.0 L 379.0 509.0 L 373.0 503.0 L 369.0 503.0 L 364.0 494.0 L 360.0 493.0 L 363.0 495.0 L 360.0 497.0 L 352.0 496.0 L 350.0 492.0 L 345.0 492.0 Z"/>
<path fill="#fdb828" fill-rule="evenodd" d="M 383.0 705.0 L 383.0 711.0 L 390.0 718.0 L 410.0 725.0 L 413.0 728.0 L 413.0 747.0 L 416.0 749.0 L 422.0 749.0 L 423.0 728.0 L 463.0 727.0 L 489.0 718.0 L 488.0 714.0 L 471.0 715.0 L 448.0 712.0 L 424.0 702.0 L 411.0 705.0 L 406.0 711.0 L 407.0 713.0 L 403.0 713.0 L 399.0 709.0 L 399.0 705.0 L 407.0 699.0 L 419.0 696.0 L 418.0 688.0 L 397.0 693.0 L 390.0 697.0 Z M 420.0 657.0 L 420.0 663.0 L 424.0 668.0 L 448.0 679.0 L 448.0 698.0 L 458.0 701.0 L 456.0 687.0 L 458.0 680.0 L 486.0 681.0 L 506.0 678.0 L 520.0 661.0 L 512.0 660.0 L 506.0 653.0 L 500.0 658.0 L 499.0 655.0 L 489.0 652.0 L 462.0 652.0 L 446.0 657.0 L 442.0 661.0 L 443.0 665.0 L 439.0 665.0 L 435.0 661.0 L 436.0 656.0 L 444.0 650.0 L 462.0 647.0 L 455.0 643.0 L 461.0 639.0 L 434.0 645.0 L 424.0 651.0 Z"/>
<path fill="#4e9950" fill-rule="evenodd" d="M 320.0 615.0 L 312.0 617.0 L 313.0 646.0 L 310.0 647.0 L 312.0 648.0 L 312.0 654.0 L 309.0 658.0 L 305.0 658.0 L 301.0 665.0 L 301.0 670.0 L 297.0 667.0 L 301.0 671.0 L 292.0 686.0 L 289.0 685.0 L 292.0 687.0 L 292.0 692.0 L 288.0 693.0 L 286.0 691.0 L 285.0 702.0 L 287.0 705.0 L 305.0 718.0 L 308.0 715.0 L 307.0 710.0 L 313.0 706.0 L 313.0 699.0 L 317.0 692.0 L 316.0 688.0 L 311.0 684.0 L 316.0 669.0 L 321.0 667.0 L 318.0 666.0 L 320.0 663.0 L 328.0 668.0 L 334.0 663.0 L 334.0 655.0 L 327.0 652.0 L 318.0 643.0 L 319.0 638.0 L 315.0 636.0 L 317.0 632.0 L 314.0 626.0 L 321.0 617.0 Z M 367.0 592.0 L 364.0 598.0 L 369.0 603.0 L 373.0 601.0 L 379.0 602.0 L 382.0 606.0 L 389.0 606.0 L 392.0 618.0 L 385.0 628.0 L 365.0 620.0 L 364.0 623.0 L 359.0 625.0 L 360.0 630.0 L 367.0 631.0 L 369.0 637.0 L 374.0 636.0 L 391.0 646.0 L 400.0 658.0 L 401.0 669.0 L 406.0 670.0 L 407.0 649.0 L 412.0 640.0 L 406.0 641.0 L 405.0 644.0 L 403.0 641.0 L 406.0 639.0 L 402.0 637.0 L 401.0 633.0 L 403.0 629.0 L 398.0 631.0 L 395.0 629.0 L 398.0 626.0 L 395.0 622.0 L 397.0 612.0 L 391.0 609.0 L 391.0 604.0 L 386.0 600.0 L 376.0 599.0 L 374.0 592.0 L 371.0 594.0 Z M 367.0 585.0 L 350.0 584.0 L 343.0 593.0 L 343.0 599.0 L 341.0 601.0 L 334.0 601.0 L 331.0 605.0 L 333.0 606.0 L 343.0 600.0 L 348.0 600.0 L 348.0 591.0 L 353.0 586.0 L 360.0 585.0 L 365.0 590.0 Z M 391.0 509.0 L 382.0 510.0 L 384.0 513.0 L 383.0 521.0 L 390.0 515.0 Z"/>
<path fill="#c5400a" fill-rule="evenodd" d="M 533.0 663.0 L 523.0 673.0 L 523.0 687.0 L 525.0 689.0 L 532.0 680.0 Z M 462.0 649.0 L 494.0 651.0 L 483.0 648.0 Z M 235.0 558.0 L 262.0 559.0 L 265.0 572.0 L 269.0 564.0 L 277.0 561.0 L 275.0 558.0 L 264.0 558.0 L 258.0 555.0 L 255.0 557.0 L 241.0 556.0 Z"/>
</svg>